<svg width="514" height="140" viewBox="0 0 514 140" fill="none" xmlns="http://www.w3.org/2000/svg">
<g clip-path="url(#clip0_885_7)">
<path d="M54.4307 16C39.9948 16 26.1501 21.7346 15.9424 31.9424C5.73464 42.1501 0 55.9948 0 70.4307C0 84.8667 5.73464 98.7113 15.9424 108.919C26.1501 119.127 39.9948 124.861 54.4307 124.861H460.069C474.505 124.861 488.35 119.127 498.558 108.919C508.765 98.7113 514.5 84.8667 514.5 70.4307C514.5 55.9948 508.765 42.1501 498.558 31.9424C488.35 21.7346 474.505 16 460.069 16H54.4307Z" fill="#E5E5E5"/>
<path d="M54.4306 27.0157C42.9162 27.0157 31.8735 31.5898 23.7316 39.7317C15.5897 47.8736 11.0156 58.9164 11.0156 70.4308C11.0156 81.9451 15.5897 92.9879 23.7316 101.13C31.8735 109.272 42.9162 113.846 54.4306 113.846H460.069C471.584 113.846 482.626 109.272 490.768 101.13C498.91 92.9879 503.484 81.9451 503.484 70.4308C503.484 58.9164 498.91 47.8736 490.768 39.7317C482.626 31.5898 471.584 27.0157 460.069 27.0157H54.4306Z" fill="white"/>
<path d="M144.029 96.3905H63.3224C63.0661 96.3923 62.8118 96.3433 62.5745 96.2464C62.3371 96.1494 62.1212 96.0065 61.9393 95.8259C61.7574 95.6452 61.613 95.4303 61.5145 95.1936C61.4159 94.9568 61.3652 94.703 61.3652 94.4465C61.3652 94.1901 61.4159 93.9363 61.5145 93.6996C61.613 93.4629 61.7574 93.248 61.9393 93.0673C62.1212 92.8866 62.3371 92.7437 62.5745 92.6468C62.8118 92.5499 63.0661 92.5009 63.3224 92.5026H144.029C144.543 92.5061 145.034 92.7124 145.396 93.0766C145.757 93.4408 145.96 93.9333 145.96 94.4465C145.96 94.9598 145.757 95.4523 145.396 95.8165C145.034 96.1807 144.543 96.387 144.029 96.3905Z" fill="#6C63FF"/>
<path d="M246.412 97.0385H165.705C165.449 97.0402 165.195 96.9912 164.957 96.8943C164.72 96.7974 164.504 96.6545 164.322 96.4738C164.14 96.2931 163.996 96.0782 163.897 95.8415C163.799 95.6048 163.748 95.3509 163.748 95.0945C163.748 94.8381 163.799 94.5842 163.897 94.3475C163.996 94.1108 164.14 93.8959 164.322 93.7152C164.504 93.5345 164.72 93.3916 164.957 93.2947C165.195 93.1978 165.449 93.1488 165.705 93.1506H246.412C246.669 93.1488 246.923 93.1978 247.16 93.2947C247.398 93.3916 247.613 93.5345 247.795 93.7152C247.977 93.8959 248.122 94.1108 248.22 94.3475C248.319 94.5842 248.37 94.8381 248.37 95.0945C248.37 95.3509 248.319 95.6048 248.22 95.8415C248.122 96.0782 247.977 96.2931 247.795 96.4738C247.613 96.6545 247.398 96.7974 247.16 96.8943C246.923 96.9912 246.669 97.0402 246.412 97.0385Z" fill="#6C63FF"/>
<path d="M348.794 97.6864H268.087C267.574 97.6829 267.083 97.4766 266.721 97.1124C266.359 96.7482 266.156 96.2557 266.156 95.7424C266.156 95.2292 266.359 94.7367 266.721 94.3725C267.083 94.0083 267.574 93.802 268.087 93.7985H348.794C349.05 93.7968 349.305 93.8458 349.542 93.9427C349.779 94.0396 349.995 94.1825 350.177 94.3632C350.359 94.5439 350.503 94.7587 350.602 94.9955C350.701 95.2322 350.751 95.486 350.751 95.7424C350.751 95.9988 350.701 96.2527 350.602 96.4895C350.503 96.7262 350.359 96.9411 350.177 97.1217C349.995 97.3024 349.779 97.4453 349.542 97.5423C349.305 97.6392 349.05 97.6882 348.794 97.6864Z" fill="#6C63FF"/>
<path d="M451.175 98.3344H370.468C369.955 98.3309 369.464 98.1246 369.102 97.7604C368.74 97.3962 368.537 96.9038 368.537 96.3905C368.537 95.8772 368.74 95.3847 369.102 95.0205C369.464 94.6564 369.955 94.45 370.468 94.4465H451.175C451.688 94.45 452.179 94.6564 452.541 95.0205C452.903 95.3847 453.106 95.8772 453.106 96.3905C453.106 96.9038 452.903 97.3962 452.541 97.7604C452.179 98.1246 451.688 98.3309 451.175 98.3344Z" fill="#6C63FF"/>
<path d="M103.5 78.5C111.784 78.5 118.5 71.7843 118.5 63.5C118.5 55.2157 111.784 48.5 103.5 48.5C95.2157 48.5 88.5 55.2157 88.5 63.5C88.5 71.7843 95.2157 78.5 103.5 78.5Z" fill="#6C63FF"/>
<path d="M206.5 78.5C214.784 78.5 221.5 71.7843 221.5 63.5C221.5 55.2157 214.784 48.5 206.5 48.5C198.216 48.5 191.5 55.2157 191.5 63.5C191.5 71.7843 198.216 78.5 206.5 78.5Z" fill="#6C63FF"/>
<path d="M309.5 78.5C317.784 78.5 324.5 71.7843 324.5 63.5C324.5 55.2157 317.784 48.5 309.5 48.5C301.216 48.5 294.5 55.2157 294.5 63.5C294.5 71.7843 301.216 78.5 309.5 78.5Z" fill="#6C63FF"/>
<path d="M412.5 78.5C420.784 78.5 427.5 71.7843 427.5 63.5C427.5 55.2157 420.784 48.5 412.5 48.5C404.216 48.5 397.5 55.2157 397.5 63.5C397.5 71.7843 404.216 78.5 412.5 78.5Z" fill="#6C63FF"/>
</g>
<defs>
<clipPath id="clip0_885_7">
<rect width="514" height="140" fill="white"/>
</clipPath>
</defs>
</svg>
